<svg width="187" height="29" viewBox="0 0 187 29" fill="none" xmlns="http://www.w3.org/2000/svg">
<path d="M21.72 0.400002V5.88H14.28V28.48H7.44001V5.88H8.55327e-06V0.400002H21.72ZM33.6328 28.76C30.9928 28.76 28.5662 28.1467 26.3528 26.92C24.1662 25.6933 22.4195 23.9867 21.1128 21.8C19.8328 19.5867 19.1928 17.1067 19.1928 14.36C19.1928 11.6133 19.8328 9.14667 21.1128 6.96C22.4195 4.77334 24.1662 3.06667 26.3528 1.84C28.5662 0.613336 30.9928 2.86102e-06 33.6328 2.86102e-06C36.2728 2.86102e-06 38.6862 0.613336 40.8728 1.84C43.0862 3.06667 44.8195 4.77334 46.0728 6.96C47.3528 9.14667 47.9928 11.6133 47.9928 14.36C47.9928 17.1067 47.3528 19.5867 46.0728 21.8C44.7928 23.9867 43.0595 25.6933 40.8728 26.92C38.6862 28.1467 36.2728 28.76 33.6328 28.76ZM33.6328 22.52C35.8728 22.52 37.6595 21.7733 38.9928 20.28C40.3528 18.7867 41.0328 16.8133 41.0328 14.36C41.0328 11.88 40.3528 9.90667 38.9928 8.44C37.6595 6.94667 35.8728 6.2 33.6328 6.2C31.3662 6.2 29.5528 6.93334 28.1928 8.4C26.8595 9.86667 26.1928 11.8533 26.1928 14.36C26.1928 16.84 26.8595 18.8267 28.1928 20.32C29.5528 21.7867 31.3662 22.52 33.6328 22.52ZM64.1981 11.6V17.28H46.5981V11.6H64.1981ZM75.9213 0.400002C78.8813 0.400002 81.4679 0.986669 83.6813 2.16C85.8946 3.33334 87.6013 4.98667 88.8013 7.12C90.0279 9.22667 90.6413 11.6667 90.6413 14.44C90.6413 17.1867 90.0279 19.6267 88.8013 21.76C87.6013 23.8933 85.8813 25.5467 83.6413 26.72C81.4279 27.8933 78.8546 28.48 75.9213 28.48H65.4013V0.400002H75.9213ZM75.4813 22.56C78.0679 22.56 80.0813 21.8533 81.5213 20.44C82.9613 19.0267 83.6813 17.0267 83.6813 14.44C83.6813 11.8533 82.9613 9.84 81.5213 8.4C80.0813 6.96 78.0679 6.24 75.4813 6.24H72.2413V22.56H75.4813ZM102.944 28.76C100.304 28.76 97.8771 28.1467 95.6638 26.92C93.4771 25.6933 91.7304 23.9867 90.4238 21.8C89.1438 19.5867 88.5038 17.1067 88.5038 14.36C88.5038 11.6133 89.1438 9.14667 90.4238 6.96C91.7304 4.77334 93.4771 3.06667 95.6638 1.84C97.8771 0.613336 100.304 2.86102e-06 102.944 2.86102e-06C105.584 2.86102e-06 107.997 0.613336 110.184 1.84C112.397 3.06667 114.13 4.77334 115.384 6.96C116.664 9.14667 117.304 11.6133 117.304 14.36C117.304 17.1067 116.664 19.5867 115.384 21.8C114.104 23.9867 112.37 25.6933 110.184 26.92C107.997 28.1467 105.584 28.76 102.944 28.76ZM102.944 22.52C105.184 22.52 106.97 21.7733 108.304 20.28C109.664 18.7867 110.344 16.8133 110.344 14.36C110.344 11.88 109.664 9.90667 108.304 8.44C106.97 6.94667 105.184 6.2 102.944 6.2C100.677 6.2 98.8638 6.93334 97.5038 8.4C96.1704 9.86667 95.5038 11.8533 95.5038 14.36C95.5038 16.84 96.1704 18.8267 97.5038 20.32C98.8638 21.7867 100.677 22.52 102.944 22.52ZM137.466 23.52H126.986L125.306 28.48H118.146L128.306 0.400002H136.226L146.386 28.48H139.146L137.466 23.52ZM135.706 18.24L132.226 7.96L128.786 18.24H135.706ZM166.078 9.44C166.078 11.0667 165.704 12.56 164.958 13.92C164.211 15.2533 163.064 16.3333 161.518 17.16C159.971 17.9867 158.051 18.4 155.758 18.4H151.518V28.48H144.678V0.400002H155.758C157.998 0.400002 159.891 0.786669 161.438 1.56C162.984 2.33333 164.144 3.4 164.918 4.76C165.691 6.12 166.078 7.68 166.078 9.44ZM155.238 12.96C156.544 12.96 157.518 12.6533 158.158 12.04C158.798 11.4267 159.118 10.56 159.118 9.44C159.118 8.32 158.798 7.45334 158.158 6.84C157.518 6.22667 156.544 5.92 155.238 5.92H151.518V12.96H155.238ZM186.239 9.44C186.239 11.0667 185.865 12.56 185.119 13.92C184.372 15.2533 183.225 16.3333 181.679 17.16C180.132 17.9867 178.212 18.4 175.919 18.4H171.679V28.48H164.839V0.400002H175.919C178.159 0.400002 180.052 0.786669 181.599 1.56C183.145 2.33333 184.305 3.4 185.079 4.76C185.852 6.12 186.239 7.68 186.239 9.44ZM175.399 12.96C176.705 12.96 177.679 12.6533 178.319 12.04C178.959 11.4267 179.279 10.56 179.279 9.44C179.279 8.32 178.959 7.45334 178.319 6.84C177.679 6.22667 176.705 5.92 175.399 5.92H171.679V12.96H175.399Z" fill="url(#paint0_linear_1_5)"/>
<defs>
<linearGradient id="paint0_linear_1_5" x1="-0.959991" y1="14.48" x2="188.04" y2="14.48" gradientUnits="userSpaceOnUse">
<stop stop-color="#2F65DB"/>
<stop offset="1" stop-color="#51F3FF"/>
</linearGradient>
</defs>
</svg>
